Coordinates
version=1
nRows=14
nColumns=42
inDegrees=yes

Units are S.I. units (second, meters, Newtons, ...)
If the header above contains a line with 'inDegrees', this indicates whether rotational values are in degrees (yes) or radians (no).

endheader
time	pelvis_tilt	pelvis_list	pelvis_rotation	pelvis_tx	pelvis_ty	pelvis_tz	hip_flexion_r	hip_adduction_r	hip_rotation_r	knee_angle_r	knee_adduction_r	knee_angle_r_beta	ankle_angle_r	subtalar_angle_r	mtp_angle_r	hip_flexion_l	hip_adduction_l	hip_rotation_l	knee_angle_l	knee_adduction_l	knee_angle_l_beta	ankle_angle_l	subtalar_angle_l	mtp_angle_l	lumbar_extension	lumbar_bending	lumbar_rotation	arm_flex_r	arm_add_r	arm_rot_r	elbow_flex_r	pro_sup_r	wrist_flex_r	wrist_dev_r	arm_flex_l	arm_add_l	arm_rot_l	elbow_flex_l	pro_sup_l	wrist_flex_l	wrist_dev_l
      0.66000000	     12.03420850	     -4.05281352	     -9.23296219	     -0.43890405	      0.84038679	     -0.17677378	    -28.95647704	      5.18741166	     -6.43355270	     15.00203433	     -0.02919952	      0.26183489	     25.45331964	      4.21244160	     -7.65749367	      9.13895055	     -5.12286358	    -14.44828256	      8.70410175	      6.67015396	      0.15191523	      7.57682989	     -4.59951872	     -7.65749367	    -26.53545115	     -0.79074988	     13.30624021	     23.83664182	     -9.77637476	      9.65705867	     49.91003312	     90.00000001	      0.00000000	      0.00000000	     -9.64079088	     -0.16951323	    -24.93746455	     19.38447617	     90.00000001	      0.00000000	      0.00000000
      0.67000000	     11.93770825	     -3.75869149	     -9.38664316	     -0.42712473	      0.83990229	     -0.17656612	    -28.99889525	      4.60486717	     -6.66355763	     16.32144660	     -0.21326900	      0.28486298	     24.82771491	      4.42060929	     -7.65390902	      9.11498039	     -4.57242569	    -14.06340973	      9.86833692	      6.46804499	      0.17223497	      7.19036191	     -4.99682135	     -7.65390902	    -26.31874210	     -1.22850575	     13.35130216	     23.23842893	     -9.65975017	      9.40153382	     49.27116803	     90.00000001	      0.00000000	      0.00000000	     -9.48688677	     -0.26175894	    -25.11248898	     19.31331340	     90.00000001	      0.00000000	      0.00000000
      0.68000000	     11.89755264	     -3.39327987	     -9.49060986	     -0.41527934	      0.83976432	     -0.17644121	    -28.96160301	      3.95268105	     -6.96787250	     17.85012053	     -0.40745597	      0.31154338	     24.16264851	      4.76167823	     -7.64811149	      8.98721126	     -3.92158080	    -13.53737765	     10.92298965	      6.23870929	      0.19064213	      6.74733306	     -5.32889807	     -7.64811149	    -26.18168179	     -1.74302503	     13.31878237	     22.56114919	     -9.51943798	      9.02300989	     48.60035842	     90.00000001	      0.00000000	      0.00000000	     -9.21377235	     -0.36865542	    -25.45124639	     19.22068837	     90.00000001	      0.00000000	      0.00000000
      0.69000000	     11.86720196	     -3.20100923	     -9.54280487	     -0.40358397	      0.84002583	     -0.17603111	    -28.99529830	      3.63861316	     -6.40373295	     19.18388318	     -0.61920997	      0.33482192	     23.45672266	      4.86114454	     -7.64675518	      8.78331400	     -3.56638494	    -12.67980497	     11.93757424	      6.20789591	      0.20834998	      6.65680524	     -5.23438779	     -7.64675518	    -26.12529160	     -2.12500347	     13.39794938	     21.78439678	     -9.49884870	      8.96136534	     48.07300983	     90.00000001	      0.00000000	      0.00000000	     -8.86357825	     -0.56933118	    -25.44126715	     19.39296497	     90.00000001	      0.00000000	      0.00000000
      0.70000000	     12.03721300	     -2.74435742	     -9.55094550	     -0.39164985	      0.84073253	     -0.17638015	    -28.76926089	      2.77791079	     -6.81756263	     21.45332930	     -0.69619843	      0.37443123	     21.44750567	      4.13868916	     -7.64229136	      8.52090437	     -2.78162729	    -12.45943304	     13.23725972	      5.90709176	      0.23103377	      6.38788335	     -5.91457905	     -7.64229136	    -26.23389292	     -2.68812543	     13.20201917	     21.11626294	     -9.26867282	      8.36060462	     47.04170765	     90.00000001	      0.00000000	      0.00000000	     -8.38846946	     -0.75143769	    -25.52136525	     19.13136941	     90.00000001	      0.00000000	      0.00000000
      0.71000000	     12.20693531	     -2.46243498	     -9.54447103	     -0.37982792	      0.84178859	     -0.17643723	    -28.53992214	      2.19695458	     -6.53829475	     23.65096892	     -0.73577287	      0.41278728	     19.60744764	      3.53417567	     -7.63920627	      8.12798390	     -2.27633685	    -11.79872225	     14.35663252	      5.81868558	      0.25057051	      6.55365684	     -6.35568902	     -7.63920627	    -26.40938553	     -3.11373714	     13.12302408	     20.33518282	     -9.14702513	      8.01218952	     46.16201611	     90.00000001	      0.00000000	      0.00000000	     -7.83279512	     -0.94333280	    -25.49084863	     19.10832464	     90.00000001	      0.00000000	      0.00000000
      0.72000000	     12.39820326	     -2.21433666	     -9.44429346	     -0.36816202	      0.84329173	     -0.17658180	    -28.28460362	      1.73575314	     -5.35864001	     25.86994981	     -0.48198103	      0.45151580	     16.94867191	      0.81846353	     -7.62573399	      7.50823941	     -1.75168264	    -10.04821363	     15.00197620	      5.91071586	      0.26183388	      6.11261580	     -8.17908899	     -7.62573399	    -26.65557435	     -3.47567413	     12.99765609	     19.52083577	     -8.93467544	      7.36313628	     45.16077782	     90.00000001	      0.00000000	      0.00000000	     -7.08014354	     -1.15367895	    -25.68170154	     18.97790598	     90.00000001	      0.00000000	      0.00000000
      0.73000000	     12.69704654	     -1.98385103	     -9.41102514	     -0.35634953	      0.84494619	     -0.17691463	    -27.82405421	      1.07753273	     -4.77490263	     28.64721914	     -0.20279440	      0.49998830	     14.65533303	      0.15340389	     -7.62402523	      6.83247165	     -1.29002529	     -9.21120180	     15.90633413	      5.97910180	      0.27761790	      6.63153013	     -8.70583216	     -7.62402523	    -26.99420335	     -3.80369651	     12.87661458	     18.69001010	     -8.88922468	      7.16226725	     44.16567820	     90.00000001	      0.00000000	      0.00000000	     -6.39589312	     -1.32984194	    -25.54243901	     19.02170104	     90.00000001	      0.00000000	      0.00000000
      0.74000000	     13.17373733	     -1.83522005	     -9.24711225	     -0.34470367	      0.84702110	     -0.17729707	    -27.54874600	      0.61779683	     -3.84644424	     31.26784251	      0.10672019	      0.54572680	     12.94105817	     -0.37078316	     -7.62319129	      5.91561314	     -0.89713300	     -8.15612640	     16.79494971	      6.13126159	      0.29312717	      7.04549660	     -8.96939931	     -7.62319129	    -27.58268587	     -4.02734711	     12.66502586	     17.85171219	     -8.83615400	      6.99118899	     43.28794572	     90.00000001	      0.00000000	      0.00000000	     -5.59933263	     -1.51762380	    -25.38927449	     19.16553861	     90.00000001	      0.00000000	      0.00000000
      0.75000000	     12.96971267	     -1.56641850	     -9.04667948	     -0.33343914	      0.84844049	     -0.17764645	    -26.07961670	      0.08988373	     -2.52164760	     34.73293406	      0.90236170	      0.60620406	      8.87908413	     -5.51246675	     -7.61409789	      5.45735739	     -0.38821816	     -5.96916593	     16.81213838	      6.37201529	      0.29342717	      6.57385597	    -11.91057735	     -7.61409789	    -27.41779957	     -4.27419211	     12.44099964	     17.00425802	     -8.50286493	      6.10301592	     41.81315277	     90.00000001	      0.00000000	      0.00000000	     -4.82279250	     -1.87441933	    -24.34933796	     19.28353976	     90.00000001	      0.00000000	      0.00000000
      0.76000000	     13.17531674	     -1.32004095	     -9.00933227	     -0.32203357	      0.85021964	     -0.17809780	    -24.93731996	     -0.64779242	     -1.72827898	     38.21329897	      1.49688247	      0.66694789	      6.64256303	     -6.66307544	     -7.61081305	      4.51280411	      0.09258940	     -5.29763911	     16.95691608	      6.50954941	      0.29595402	      7.27640247	    -12.09506249	     -7.61081305	    -27.66655428	     -4.55316785	     12.27555506	     16.15595352	     -8.46587081	      6.02992805	     40.60599378	     90.00000001	      0.00000000	      0.00000000	     -3.99104750	     -2.08815650	    -23.85929726	     19.50594717	     90.00000001	      0.00000000	      0.00000000
      0.77000000	     13.21652327	     -1.04284177	     -8.81571801	     -0.31096745	      0.85179739	     -0.17877755	    -23.49856940	     -1.35678670	     -0.58665674	     41.76039466	      2.49743834	      0.72885638	      4.52047181	     -9.17683302	     -7.60673397	      3.67834673	      0.63278897	     -4.43465277	     16.86994037	      6.57931058	      0.29443600	      7.58199907	    -12.62250833	     -7.60673397	    -27.78079698	     -4.76701000	     11.93920855	     15.35038848	     -8.32581949	      5.72232814	     39.32922679	     90.00000001	      0.00000000	      0.00000000	     -3.12258803	     -2.35315817	    -23.05368843	     19.78256505	     90.00000001	      0.00000000	      0.00000000
      0.78000000	     13.36310885	     -1.03103335	     -8.50920828	     -0.30018648	      0.85364978	     -0.17941027	    -22.28665982	     -1.70061538	      1.28500837	     44.88080014	      3.98149100	      0.78331773	      2.37050172	    -12.66045097	     -7.59887764	      2.50445532	      0.83999044	     -3.25653538	     16.38552142	      6.81707706	      0.28598130	      7.60416892	    -13.64769286	     -7.59887764	    -28.09097606	     -4.67701274	     11.60923374	     14.56292483	     -8.18823870	      5.22844855	     38.16308862	     90.00000001	      0.00000000	      0.00000000	     -2.35657849	     -2.67914526	    -21.36449341	     20.41136383	     90.00000001	      0.00000000	      0.00000000
      0.79000000	     13.42508606	     -0.91745759	     -8.36659389	     -0.28949715	      0.85511874	     -0.17996581	    -20.70431439	     -2.22532732	      2.21763184	     48.27490047	      4.87091136	      0.84255596	      1.66144067	    -13.63529817	     -7.59638575	      1.40104634	      1.12325061	     -3.04399214	     15.84951930	      6.92422339	      0.27662630	      8.40769510	    -13.11282931	     -7.59638575	    -28.26185845	     -4.72370578	     11.31439778	     13.80154565	     -8.12942197	      5.14078998	     36.97525166	     90.00000001	      0.00000000	      0.00000000	     -1.42264638	     -2.91101162	    -20.75785736	     20.84212744	     90.00000001	      0.00000000	      0.00000000
